<?xml version="1.0" encoding="UTF-8" standalone="no"?>
<!DOCTYPE svg PUBLIC "-//W3C//DTD SVG 1.1//EN"
 "http://www.w3.org/Graphics/SVG/1.1/DTD/svg11.dtd">
<!-- Generated by graphviz version 2.50.0 (0)
 -->
<!-- Pages: 1 -->
<svg width="2012pt" height="908pt"
 viewBox="0.00 0.00 2012.00 908.00" xmlns="http://www.w3.org/2000/svg" xmlns:xlink="http://www.w3.org/1999/xlink">
<g id="graph0" class="graph" transform="scale(1 1) rotate(0) translate(4 904)">
<polygon fill="white" stroke="transparent" points="-4,4 -4,-904 2008,-904 2008,4 -4,4"/>
<!-- 443870120679281746 -->
<g id="node1" class="node">
<title>443870120679281746</title>
<polygon fill="none" stroke="black" points="850,-900 368,-900 368,-864 850,-864 850,-900"/>
<text text-anchor="middle" x="609" y="-877" font-family="Helvetica,sans-Serif" font-size="20.00">Projection(Loc, [&#39;pickup_latitude&#39;, &#39;pickup_longitude&#39;])</text>
</g>
<!-- &#45;4814158276099207107 -->
<g id="node2" class="node">
<title>&#45;4814158276099207107</title>
<polygon fill="none" stroke="black" points="679,-828 539,-828 539,-792 679,-792 679,-828"/>
<text text-anchor="middle" x="609" y="-805" font-family="Helvetica,sans-Serif" font-size="20.00">Loc(Loc, And)</text>
</g>
<!-- &#45;4814158276099207107&#45;&gt;443870120679281746 -->
<g id="edge1" class="edge">
<title>&#45;4814158276099207107&#45;&gt;443870120679281746</title>
<path fill="none" stroke="black" d="M609,-828.3C609,-836.02 609,-845.29 609,-853.89"/>
<polygon fill="black" stroke="black" points="605.5,-853.9 609,-863.9 612.5,-853.9 605.5,-853.9"/>
</g>
<!-- 1671457592424090890 -->
<g id="node3" class="node">
<title>1671457592424090890</title>
<polygon fill="none" stroke="black" points="808.5,-756 575.5,-756 575.5,-720 808.5,-720 808.5,-756"/>
<text text-anchor="middle" x="692" y="-733" font-family="Helvetica,sans-Serif" font-size="20.00">And(Between, Between)</text>
</g>
<!-- 1671457592424090890&#45;&gt;&#45;4814158276099207107 -->
<g id="edge2" class="edge">
<title>1671457592424090890&#45;&gt;&#45;4814158276099207107</title>
<path fill="none" stroke="black" d="M671.48,-756.3C661.13,-765.03 648.41,-775.76 637.16,-785.25"/>
<polygon fill="black" stroke="black" points="634.67,-782.77 629.28,-791.9 639.18,-788.12 634.67,-782.77"/>
</g>
<!-- 8392173350113837039 -->
<g id="node4" class="node">
<title>8392173350113837039</title>
<polygon fill="none" stroke="black" points="790.5,-684 593.5,-684 593.5,-648 790.5,-648 790.5,-684"/>
<text text-anchor="middle" x="692" y="-661" font-family="Helvetica,sans-Serif" font-size="20.00">Between(Projection)</text>
</g>
<!-- 8392173350113837039&#45;&gt;1671457592424090890 -->
<g id="edge5" class="edge">
<title>8392173350113837039&#45;&gt;1671457592424090890</title>
<path fill="none" stroke="black" d="M692,-684.3C692,-692.02 692,-701.29 692,-709.89"/>
<polygon fill="black" stroke="black" points="688.5,-709.9 692,-719.9 695.5,-709.9 688.5,-709.9"/>
</g>
<!-- &#45;4235987318897610049 -->
<g id="node5" class="node">
<title>&#45;4235987318897610049</title>
<polygon fill="none" stroke="black" points="829.5,-612 554.5,-612 554.5,-576 829.5,-576 829.5,-612"/>
<text text-anchor="middle" x="692" y="-589" font-family="Helvetica,sans-Serif" font-size="20.00">Projection(Loc, trip_distance)</text>
</g>
<!-- &#45;4235987318897610049&#45;&gt;8392173350113837039 -->
<g id="edge6" class="edge">
<title>&#45;4235987318897610049&#45;&gt;8392173350113837039</title>
<path fill="none" stroke="black" d="M692,-612.3C692,-620.02 692,-629.29 692,-637.89"/>
<polygon fill="black" stroke="black" points="688.5,-637.9 692,-647.9 695.5,-637.9 688.5,-637.9"/>
</g>
<!-- &#45;8605416518794450873 -->
<g id="node6" class="node">
<title>&#45;8605416518794450873</title>
<polygon fill="none" stroke="black" points="790.5,-540 593.5,-540 593.5,-504 790.5,-504 790.5,-540"/>
<text text-anchor="middle" x="692" y="-517" font-family="Helvetica,sans-Serif" font-size="20.00">Loc(Projection, And)</text>
</g>
<!-- &#45;8605416518794450873&#45;&gt;&#45;4814158276099207107 -->
<g id="edge3" class="edge">
<title>&#45;8605416518794450873&#45;&gt;&#45;4814158276099207107</title>
<path fill="none" stroke="black" d="M593.38,-539.89C574.39,-547.76 556.77,-559.24 545,-576 523.85,-606.11 510.79,-630.09 566,-756 570.47,-766.2 577.45,-776.05 584.5,-784.44"/>
<polygon fill="black" stroke="black" points="581.95,-786.83 591.2,-791.99 587.18,-782.19 581.95,-786.83"/>
</g>
<!-- &#45;8605416518794450873&#45;&gt;&#45;4235987318897610049 -->
<g id="edge7" class="edge">
<title>&#45;8605416518794450873&#45;&gt;&#45;4235987318897610049</title>
<path fill="none" stroke="black" d="M692,-540.3C692,-548.02 692,-557.29 692,-565.89"/>
<polygon fill="black" stroke="black" points="688.5,-565.9 692,-575.9 695.5,-565.9 688.5,-565.9"/>
</g>
<!-- 214356513324466477 -->
<g id="node24" class="node">
<title>214356513324466477</title>
<polygon fill="none" stroke="black" points="1122.5,-612 847.5,-612 847.5,-576 1122.5,-576 1122.5,-612"/>
<text text-anchor="middle" x="985" y="-589" font-family="Helvetica,sans-Serif" font-size="20.00">Projection(Loc, fare_amount)</text>
</g>
<!-- &#45;8605416518794450873&#45;&gt;214356513324466477 -->
<g id="edge29" class="edge">
<title>&#45;8605416518794450873&#45;&gt;214356513324466477</title>
<path fill="none" stroke="black" d="M763.3,-540.03C805.74,-550.17 859.74,-563.07 903.81,-573.6"/>
<polygon fill="black" stroke="black" points="903.09,-577.03 913.63,-575.95 904.72,-570.22 903.09,-577.03"/>
</g>
<!-- &#45;1042558760021683409 -->
<g id="node7" class="node">
<title>&#45;1042558760021683409</title>
<polygon fill="none" stroke="black" points="725.5,-468 534.5,-468 534.5,-432 725.5,-432 725.5,-468"/>
<text text-anchor="middle" x="630" y="-445" font-family="Helvetica,sans-Serif" font-size="20.00">And(And, Between)</text>
</g>
<!-- &#45;1042558760021683409&#45;&gt;&#45;8605416518794450873 -->
<g id="edge9" class="edge">
<title>&#45;1042558760021683409&#45;&gt;&#45;8605416518794450873</title>
<path fill="none" stroke="black" d="M645.33,-468.3C652.76,-476.7 661.82,-486.93 669.98,-496.14"/>
<polygon fill="black" stroke="black" points="667.6,-498.73 676.85,-503.9 672.84,-494.09 667.6,-498.73"/>
</g>
<!-- &#45;4145693889013042890 -->
<g id="node8" class="node">
<title>&#45;4145693889013042890</title>
<polygon fill="none" stroke="black" points="479.5,-396 282.5,-396 282.5,-360 479.5,-360 479.5,-396"/>
<text text-anchor="middle" x="381" y="-373" font-family="Helvetica,sans-Serif" font-size="20.00">Between(Projection)</text>
</g>
<!-- &#45;4145693889013042890&#45;&gt;&#45;1042558760021683409 -->
<g id="edge11" class="edge">
<title>&#45;4145693889013042890&#45;&gt;&#45;1042558760021683409</title>
<path fill="none" stroke="black" d="M441.59,-396.03C477.14,-406.03 522.22,-418.7 559.38,-429.15"/>
<polygon fill="black" stroke="black" points="558.56,-432.55 569.13,-431.89 560.45,-425.81 558.56,-432.55"/>
</g>
<!-- &#45;5390626926942544633 -->
<g id="node9" class="node">
<title>&#45;5390626926942544633</title>
<polygon fill="none" stroke="black" points="348,-180 0,-180 0,-144 348,-144 348,-180"/>
<text text-anchor="middle" x="174" y="-157" font-family="Helvetica,sans-Serif" font-size="20.00">Projection(Concat, dropoff_longitude)</text>
</g>
<!-- &#45;5390626926942544633&#45;&gt;&#45;4145693889013042890 -->
<g id="edge12" class="edge">
<title>&#45;5390626926942544633&#45;&gt;&#45;4145693889013042890</title>
<path fill="none" stroke="black" d="M190.59,-180.15C227.15,-217.95 314.79,-308.55 357.2,-352.4"/>
<polygon fill="black" stroke="black" points="354.86,-355.01 364.33,-359.77 359.89,-350.15 354.86,-355.01"/>
</g>
<!-- &#45;2889505367895943964 -->
<g id="node10" class="node">
<title>&#45;2889505367895943964</title>
<polygon fill="none" stroke="black" points="1076.5,-108 699.5,-108 699.5,-72 1076.5,-72 1076.5,-108"/>
<text text-anchor="middle" x="888" y="-85" font-family="Helvetica,sans-Serif" font-size="20.00">Concat(ReadCSV, ReadCSV, ReadCSV)</text>
</g>
<!-- &#45;2889505367895943964&#45;&gt;&#45;5390626926942544633 -->
<g id="edge13" class="edge">
<title>&#45;2889505367895943964&#45;&gt;&#45;5390626926942544633</title>
<path fill="none" stroke="black" d="M714.25,-108.03C606.27,-118.62 467.61,-132.21 357.8,-142.98"/>
<polygon fill="black" stroke="black" points="357.21,-139.52 347.6,-143.98 357.89,-146.49 357.21,-139.52"/>
</g>
<!-- &#45;6275841193515213507 -->
<g id="node16" class="node">
<title>&#45;6275841193515213507</title>
<polygon fill="none" stroke="black" points="697.5,-180 366.5,-180 366.5,-144 697.5,-144 697.5,-180"/>
<text text-anchor="middle" x="532" y="-157" font-family="Helvetica,sans-Serif" font-size="20.00">Projection(Concat, dropoff_latitude)</text>
</g>
<!-- &#45;2889505367895943964&#45;&gt;&#45;6275841193515213507 -->
<g id="edge20" class="edge">
<title>&#45;2889505367895943964&#45;&gt;&#45;6275841193515213507</title>
<path fill="none" stroke="black" d="M801.37,-108.03C749.15,-118.3 682.54,-131.4 628.63,-142"/>
<polygon fill="black" stroke="black" points="627.85,-138.59 618.71,-143.95 629.2,-145.45 627.85,-138.59"/>
</g>
<!-- 8655416797831008068 -->
<g id="node19" class="node">
<title>8655416797831008068</title>
<polygon fill="none" stroke="black" points="1060,-180 716,-180 716,-144 1060,-144 1060,-180"/>
<text text-anchor="middle" x="888" y="-157" font-family="Helvetica,sans-Serif" font-size="20.00">Projection(Concat, pickup_longitude)</text>
</g>
<!-- &#45;2889505367895943964&#45;&gt;8655416797831008068 -->
<g id="edge24" class="edge">
<title>&#45;2889505367895943964&#45;&gt;8655416797831008068</title>
<path fill="none" stroke="black" d="M888,-108.3C888,-116.02 888,-125.29 888,-133.89"/>
<polygon fill="black" stroke="black" points="884.5,-133.9 888,-143.9 891.5,-133.9 884.5,-133.9"/>
</g>
<!-- &#45;4220735798293135769 -->
<g id="node21" class="node">
<title>&#45;4220735798293135769</title>
<polygon fill="none" stroke="black" points="1404,-180 1078,-180 1078,-144 1404,-144 1404,-180"/>
<text text-anchor="middle" x="1241" y="-157" font-family="Helvetica,sans-Serif" font-size="20.00">Projection(Concat, pickup_latitude)</text>
</g>
<!-- &#45;2889505367895943964&#45;&gt;&#45;4220735798293135769 -->
<g id="edge26" class="edge">
<title>&#45;2889505367895943964&#45;&gt;&#45;4220735798293135769</title>
<path fill="none" stroke="black" d="M973.9,-108.03C1025.68,-118.3 1091.73,-131.4 1145.19,-142"/>
<polygon fill="black" stroke="black" points="1144.53,-145.44 1155.02,-143.95 1145.89,-138.57 1144.53,-145.44"/>
</g>
<!-- &#45;7053550357575592718 -->
<g id="node22" class="node">
<title>&#45;7053550357575592718</title>
<polygon fill="none" stroke="black" points="2004,-324 900,-324 900,-288 2004,-288 2004,-324"/>
<text text-anchor="middle" x="1452" y="-301" font-family="Helvetica,sans-Serif" font-size="20.00">Projection(Concat, [&#39;trip_distance&#39;, &#39;pickup_longitude&#39;, &#39;pickup_latitude&#39;, &#39;dropoff_longitude&#39;, &#39;dropoff_latitude&#39;, &#39;fare_amount&#39;])</text>
</g>
<!-- &#45;2889505367895943964&#45;&gt;&#45;7053550357575592718 -->
<g id="edge27" class="edge">
<title>&#45;2889505367895943964&#45;&gt;&#45;7053550357575592718</title>
<path fill="none" stroke="black" d="M1076.54,-99.49C1216.55,-107.54 1387.49,-121.77 1413,-144 1451.22,-177.31 1455.29,-241.08 1454.13,-277.57"/>
<polygon fill="black" stroke="black" points="1450.61,-277.8 1453.63,-287.95 1457.61,-278.13 1450.61,-277.8"/>
</g>
<!-- 6038740800739861316 -->
<g id="node11" class="node">
<title>6038740800739861316</title>
<polygon fill="none" stroke="black" points="817,-36 711,-36 711,0 817,0 817,-36"/>
<text text-anchor="middle" x="764" y="-13" font-family="Helvetica,sans-Serif" font-size="20.00">ReadCSV</text>
</g>
<!-- 6038740800739861316&#45;&gt;&#45;2889505367895943964 -->
<g id="edge16" class="edge">
<title>6038740800739861316&#45;&gt;&#45;2889505367895943964</title>
<path fill="none" stroke="black" d="M794.33,-36.12C810.7,-45.36 831.08,-56.87 848.65,-66.79"/>
<polygon fill="black" stroke="black" points="847.12,-69.94 857.55,-71.81 850.56,-63.85 847.12,-69.94"/>
</g>
<!-- 2294175466608073873 -->
<g id="node12" class="node">
<title>2294175466608073873</title>
<polygon fill="none" stroke="black" points="941,-36 835,-36 835,0 941,0 941,-36"/>
<text text-anchor="middle" x="888" y="-13" font-family="Helvetica,sans-Serif" font-size="20.00">ReadCSV</text>
</g>
<!-- 2294175466608073873&#45;&gt;&#45;2889505367895943964 -->
<g id="edge15" class="edge">
<title>2294175466608073873&#45;&gt;&#45;2889505367895943964</title>
<path fill="none" stroke="black" d="M888,-36.3C888,-44.02 888,-53.29 888,-61.89"/>
<polygon fill="black" stroke="black" points="884.5,-61.9 888,-71.9 891.5,-61.9 884.5,-61.9"/>
</g>
<!-- 2929536298884417561 -->
<g id="node13" class="node">
<title>2929536298884417561</title>
<polygon fill="none" stroke="black" points="1065,-36 959,-36 959,0 1065,0 1065,-36"/>
<text text-anchor="middle" x="1012" y="-13" font-family="Helvetica,sans-Serif" font-size="20.00">ReadCSV</text>
</g>
<!-- 2929536298884417561&#45;&gt;&#45;2889505367895943964 -->
<g id="edge14" class="edge">
<title>2929536298884417561&#45;&gt;&#45;2889505367895943964</title>
<path fill="none" stroke="black" d="M981.67,-36.12C965.3,-45.36 944.92,-56.87 927.35,-66.79"/>
<polygon fill="black" stroke="black" points="925.44,-63.85 918.45,-71.81 928.88,-69.94 925.44,-63.85"/>
</g>
<!-- &#45;1584891094476983320 -->
<g id="node14" class="node">
<title>&#45;1584891094476983320</title>
<polygon fill="none" stroke="black" points="725.5,-396 534.5,-396 534.5,-360 725.5,-360 725.5,-396"/>
<text text-anchor="middle" x="630" y="-373" font-family="Helvetica,sans-Serif" font-size="20.00">And(And, Between)</text>
</g>
<!-- &#45;1584891094476983320&#45;&gt;&#45;1042558760021683409 -->
<g id="edge10" class="edge">
<title>&#45;1584891094476983320&#45;&gt;&#45;1042558760021683409</title>
<path fill="none" stroke="black" d="M630,-396.3C630,-404.02 630,-413.29 630,-421.89"/>
<polygon fill="black" stroke="black" points="626.5,-421.9 630,-431.9 633.5,-421.9 626.5,-421.9"/>
</g>
<!-- &#45;3494575875607639850 -->
<g id="node15" class="node">
<title>&#45;3494575875607639850</title>
<polygon fill="none" stroke="black" points="630.5,-324 433.5,-324 433.5,-288 630.5,-288 630.5,-324"/>
<text text-anchor="middle" x="532" y="-301" font-family="Helvetica,sans-Serif" font-size="20.00">Between(Projection)</text>
</g>
<!-- &#45;3494575875607639850&#45;&gt;&#45;1584891094476983320 -->
<g id="edge17" class="edge">
<title>&#45;3494575875607639850&#45;&gt;&#45;1584891094476983320</title>
<path fill="none" stroke="black" d="M555.97,-324.12C568.55,-333.11 584.13,-344.24 597.75,-353.97"/>
<polygon fill="black" stroke="black" points="595.76,-356.85 605.93,-359.81 599.83,-351.15 595.76,-356.85"/>
</g>
<!-- &#45;6275841193515213507&#45;&gt;&#45;3494575875607639850 -->
<g id="edge19" class="edge">
<title>&#45;6275841193515213507&#45;&gt;&#45;3494575875607639850</title>
<path fill="none" stroke="black" d="M532,-180.13C532,-204.33 532,-248.79 532,-277.61"/>
<polygon fill="black" stroke="black" points="528.5,-277.81 532,-287.81 535.5,-277.81 528.5,-277.81"/>
</g>
<!-- &#45;5787190751289658426 -->
<g id="node17" class="node">
<title>&#45;5787190751289658426</title>
<polygon fill="none" stroke="black" points="881.5,-324 648.5,-324 648.5,-288 881.5,-288 881.5,-324"/>
<text text-anchor="middle" x="765" y="-301" font-family="Helvetica,sans-Serif" font-size="20.00">And(Between, Between)</text>
</g>
<!-- &#45;5787190751289658426&#45;&gt;&#45;1584891094476983320 -->
<g id="edge18" class="edge">
<title>&#45;5787190751289658426&#45;&gt;&#45;1584891094476983320</title>
<path fill="none" stroke="black" d="M731.98,-324.12C713.92,-333.49 691.35,-345.19 672.05,-355.2"/>
<polygon fill="black" stroke="black" points="670.42,-352.1 663.15,-359.81 673.64,-358.31 670.42,-352.1"/>
</g>
<!-- &#45;7096766726280787485 -->
<g id="node18" class="node">
<title>&#45;7096766726280787485</title>
<polygon fill="none" stroke="black" points="924.5,-252 727.5,-252 727.5,-216 924.5,-216 924.5,-252"/>
<text text-anchor="middle" x="826" y="-229" font-family="Helvetica,sans-Serif" font-size="20.00">Between(Projection)</text>
</g>
<!-- &#45;7096766726280787485&#45;&gt;&#45;5787190751289658426 -->
<g id="edge22" class="edge">
<title>&#45;7096766726280787485&#45;&gt;&#45;5787190751289658426</title>
<path fill="none" stroke="black" d="M810.92,-252.3C803.61,-260.7 794.69,-270.93 786.66,-280.14"/>
<polygon fill="black" stroke="black" points="783.84,-278.06 779.91,-287.9 789.11,-282.66 783.84,-278.06"/>
</g>
<!-- 8655416797831008068&#45;&gt;&#45;7096766726280787485 -->
<g id="edge23" class="edge">
<title>8655416797831008068&#45;&gt;&#45;7096766726280787485</title>
<path fill="none" stroke="black" d="M872.67,-180.3C865.24,-188.7 856.18,-198.93 848.02,-208.14"/>
<polygon fill="black" stroke="black" points="845.16,-206.09 841.15,-215.9 850.4,-210.73 845.16,-206.09"/>
</g>
<!-- 9172043805247460090 -->
<g id="node20" class="node">
<title>9172043805247460090</title>
<polygon fill="none" stroke="black" points="1209.5,-252 1012.5,-252 1012.5,-216 1209.5,-216 1209.5,-252"/>
<text text-anchor="middle" x="1111" y="-229" font-family="Helvetica,sans-Serif" font-size="20.00">Between(Projection)</text>
</g>
<!-- 9172043805247460090&#45;&gt;&#45;5787190751289658426 -->
<g id="edge21" class="edge">
<title>9172043805247460090&#45;&gt;&#45;5787190751289658426</title>
<path fill="none" stroke="black" d="M1026.8,-252.03C976.16,-262.28 911.58,-275.34 859.24,-285.93"/>
<polygon fill="black" stroke="black" points="858.38,-282.54 849.28,-287.95 859.77,-289.4 858.38,-282.54"/>
</g>
<!-- &#45;4220735798293135769&#45;&gt;9172043805247460090 -->
<g id="edge25" class="edge">
<title>&#45;4220735798293135769&#45;&gt;9172043805247460090</title>
<path fill="none" stroke="black" d="M1209.2,-180.12C1191.89,-189.45 1170.28,-201.08 1151.74,-211.06"/>
<polygon fill="black" stroke="black" points="1150.07,-207.99 1142.92,-215.81 1153.39,-214.15 1150.07,-207.99"/>
</g>
<!-- &#45;7053550357575592718&#45;&gt;&#45;8605416518794450873 -->
<g id="edge8" class="edge">
<title>&#45;7053550357575592718&#45;&gt;&#45;8605416518794450873</title>
<path fill="none" stroke="black" d="M1391.41,-324.06C1252.27,-363.24 910.51,-459.47 762.37,-501.18"/>
<polygon fill="black" stroke="black" points="761.15,-497.89 752.47,-503.97 763.05,-504.63 761.15,-497.89"/>
</g>
<!-- 8020786700650619184 -->
<g id="node23" class="node">
<title>8020786700650619184</title>
<polygon fill="none" stroke="black" points="1044.5,-684 847.5,-684 847.5,-648 1044.5,-648 1044.5,-684"/>
<text text-anchor="middle" x="946" y="-661" font-family="Helvetica,sans-Serif" font-size="20.00">Between(Projection)</text>
</g>
<!-- 8020786700650619184&#45;&gt;1671457592424090890 -->
<g id="edge4" class="edge">
<title>8020786700650619184&#45;&gt;1671457592424090890</title>
<path fill="none" stroke="black" d="M884.19,-684.03C847.93,-694.03 801.94,-706.7 764.04,-717.15"/>
<polygon fill="black" stroke="black" points="762.8,-713.86 754.09,-719.89 764.66,-720.61 762.8,-713.86"/>
</g>
<!-- 214356513324466477&#45;&gt;8020786700650619184 -->
<g id="edge28" class="edge">
<title>214356513324466477&#45;&gt;8020786700650619184</title>
<path fill="none" stroke="black" d="M975.36,-612.3C970.87,-620.36 965.44,-630.11 960.48,-639.02"/>
<polygon fill="black" stroke="black" points="957.34,-637.46 955.53,-647.9 963.45,-640.86 957.34,-637.46"/>
</g>
</g>
</svg>
